# xmcd
#
# Track frame offsets: 
#        300
#        18116
#        35179
#        60884
#        83618
#        103543
#        122663
#        145816
#        197488
#
# Disc length: 2869 seconds
#
# Revision: 0
# Processed by: cddbd v1.5.2PL0 Copyright (c) Steve Scherf et al.
# Submitted via: ExactAudioCopy v0.99pb5
#
DISCID=6a0b3109
DTITLE=Bronco Bob - Trade Offs
DYEAR=2005
DGENRE=General Blues
TTITLE0=Testify
TTITLE1=Standing On Shaky Ground
TTITLE2=Knockin' On Heavens Door
TTITLE3=Trouble
TTITLE4=Love And Happiness
TTITLE5=Take Me To The River
TTITLE6=She Caught The Katy
TTITLE7=Hey Joe
TTITLE8=Givin' It Up For Your Love
EXTD=
EXTT0=
EXTT1=
EXTT2=
EXTT3=
EXTT4=
EXTT5=
EXTT6=
EXTT7=
EXTT8=
PLAYORDER=
